# xmcd
#
# Track frame offsets:
#	150
#	15223
#	27280
#	39520
#	50077
#	60661
#	72256
#	85272
#	96756
#	107887
#	119964
#	132067
#	145564
#	159012
#	171699
#	184131
#	196131
#	209566
#	221457
#	232694
#	246143
#	259334
#	270309
#	281629
#	293108
#	303358
#	315284
#	326643
#
# Disc length: 4506 seconds
#
# Revision: 2
# Processed by: cddbd v1.5.2PL0 Copyright (c) Steve Scherf et al.
# Submitted via: audiograbber 1.83.01
#
DISCID=9211981c
DTITLE=Various Artist - Country and Western Hitparade 1953
DYEAR=2009
DGENRE=Hillbilly/Country
TTITLE0=Jack Cardwell - The Death Of Hank Williams
TTITLE1=Faron Young - Goin' Steady
TTITLE2=Hank Williams - Your Cheatin' Heart
TTITLE3=Johnnie and Jack - South In New Orleans
TTITLE4=Webb Pierce - It's Been So Long
TTITLE5=Johnny Bond - Let Me Go, Devil
TTITLE6=Red Cook with Jimmy Richards and His Westerners  - Playin' Dominoes And
TTITLE6=Shootin' Dice
TTITLE7=Hank Snow - The Singing Ranger and the Rainbow Ranch Boys  - (Now And T
TTITLE7=hen There's) A Fool Such As I
TTITLE8=The Carlisles - No Help Wanted
TTITLE9=Marty Robbins - I'll Go On Alone
TTITLE10=Arlie Duff - You All Come
TTITLE11=The Davis Sisters - I Forgot More Than You'll Ever Know
TTITLE12=Lefty Frizzell - California Blues (Blue Yodel No. 4)
TTITLE13=Link Davis with Bennie Leader's Bayou  Billies - Big Mamou
TTITLE14=Tommy Duncan - Hound Dog
TTITLE15=Onie Wheeler - Run 'Em Off
TTITLE16=Darrell Glenn - Crying In The Chapel
TTITLE17=Jim Reeves and the Circle O Ranch Boys - Mexican Joe
TTITLE18=Hank Locklin - The Rocky Mountain Boy - Let Me Be The One
TTITLE19=Joe and Rose Lee Maphis - Dim Lights, Thick Smoke (And Loud, Loud Music)
TTITLE20=Rudy Grayzell with Louisiana Hayride Band - Lookin' At The Moon And Wi
TTITLE20=shing On A Star
TTITLE21=Webb Pierce - There Stands The Glass
TTITLE22=Carl Smith - Hey Joe!
TTITLE23=Merrill Moore - Red Light
TTITLE24=Chet Atkins - Country Gentleman (instr.)
TTITLE25=Hank Williams - Take These Chains From My Heart
TTITLE26=Mitchell Torok - Caribbean
TTITLE27=Jean Sheppard and Ferlin Husky - A Dear John Letter
EXTD=
EXTT0=
EXTT1=
EXTT2=
EXTT3=
EXTT4=
EXTT5=
EXTT6=
EXTT7=
EXTT8=
EXTT9=
EXTT10=
EXTT11=
EXTT12=
EXTT13=
EXTT14=
EXTT15=
EXTT16=
EXTT17=
EXTT18=
EXTT19=
EXTT20=
EXTT21=
EXTT22=
EXTT23=
EXTT24=
EXTT25=
EXTT26=
EXTT27=
PLAYORDER=
